<?xml version="1.0" encoding="UTF-8"?>
<!DOCTYPE svg PUBLIC "-//W3C//DTD SVG 1.1//EN" "http://www.w3.org/Graphics/SVG/1.1/DTD/svg11.dtd">
<!-- Creator: CorelDRAW X8 -->
<svg xmlns="http://www.w3.org/2000/svg" xml:space="preserve" width="301px" height="111px" version="1.1" style="shape-rendering:geometricPrecision; text-rendering:geometricPrecision; image-rendering:optimizeQuality; fill-rule:evenodd; clip-rule:evenodd"
viewBox="0 0 301 111"
 xmlns:xlink="http://www.w3.org/1999/xlink">
 <defs>
  <style type="text/css">
   <![CDATA[
    .fil2 {fill:none}
    .fil0 {fill:#FEFEFE}
    .fil1 {fill:#ED3237}
    .fil3 {fill:#FEFEFE;fill-rule:nonzero}
    .fil4 {fill:#ED3237;fill-rule:nonzero}
   ]]>
  </style>
 </defs>
 <g id="Camada_x0020_1">
  <metadata id="CorelCorpID_0Corel-Layer"/>
  <g id="_2357847648224">
   <path class="fil0" d="M58 11c-10,6 -6,4 -14,8 54,8 94,-2 143,3 23,3 22,4 44,13 -71,-22 -103,-2 -167,-10 -34,-4 -26,-5 -6,-14zm-43 47c11,28 52,0 21,-21 6,1 11,4 13,10 11,28 -35,34 -34,11zm165 0c12,28 52,0 21,-21 6,1 11,4 13,10 11,28 -35,34 -34,11zm37 -25c-4,10 40,8 25,21 -4,3 -5,3 -10,5 1,-1 7,-6 9,-8 4,-7 -39,-13 -24,-18zm-206 16c-25,-18 -3,-25 18,-34 51,-23 75,-18 126,4 -55,-17 -71,-23 -125,-1 -30,11 -36,13 -19,31z"/>
   <path class="fil1" d="M42 30c35,-4 24,23 74,30 17,2 30,2 48,2 -113,9 -69,-26 -122,-32z"/>
   <path class="fil2" d="M15 58c1,11 18,17 27,10 8,-7 13,-24 -6,-31"/>
   <path class="fil3" d="M24 100l6 2c-1,2 -2,4 -4,5 -1,1 -2,2 -4,3 -2,1 -4,1 -6,1 -3,0 -5,0 -6,-1 -2,-1 -3,-2 -4,-4 -1,-2 0,-5 0,-8 2,-4 4,-8 7,-10 2,-2 6,-3 10,-3 3,0 6,0 7,2 2,1 2,3 3,6l-8 1c0,-1 0,-1 0,-2 0,0 -1,-1 -1,-1 -1,0 -2,0 -2,0 -2,0 -4,0 -5,2 -1,1 -2,2 -3,5 0,3 -1,4 0,6 1,1 2,1 3,1 2,0 3,0 4,-1 1,-1 2,-2 3,-4zm15 -15l19 0 -1 6 -12 0 -1 4 10 0 -2 5 -10 0 -3 11 -7 0 7 -26zm23 0l15 0c3,0 4,1 5,2 1,1 2,3 1,4 0,2 -1,3 -2,4 -1,1 -2,2 -4,2 2,0 3,1 4,2 0,1 0,3 0,4 -1,2 -1,3 -2,4 -1,1 -2,2 -3,2 -1,1 -2,1 -4,1 -1,0 -3,1 -3,1l-14 0 7 -26zm6 10l3 0c1,0 2,0 3,-1 0,0 1,-1 1,-1 0,-1 0,-2 0,-2 -1,-1 -1,-1 -3,-1l-3 0 -1 5zm-3 10l4 0c1,0 2,0 3,-1 1,0 1,-1 1,-2 0,0 0,-1 0,-1 -1,-1 -1,-1 -3,-1l-4 0 -1 5z"/>
   <path class="fil4" d="M102 85l8 0 1 18 11 -18 8 0 -17 26 -8 0 -3 -26zm30 0l21 0 -1 6 -13 0 -1 4 12 0 -2 5 -12 0 -1 5 13 0 -1 6 -22 0 7 -26zm26 0l8 0 -7 26 -8 0 7 -26zm6 -7l6 0 -7 6 -3 0 4 -6zm21 22l6 2c-1,2 -2,4 -4,5 -1,1 -3,2 -4,3 -2,1 -4,1 -6,1 -3,0 -5,0 -7,-1 -1,-1 -2,-2 -3,-4 -1,-2 -1,-5 0,-8 2,-4 4,-8 6,-10 3,-2 7,-3 11,-3 3,0 6,0 7,2 1,1 2,3 2,6l-7 1c0,-1 0,-1 0,-2 -1,0 -1,-1 -1,-1 -1,0 -2,0 -2,0 -2,0 -4,0 -5,2 -1,1 -2,2 -3,5 -1,3 -1,4 0,6 1,1 2,1 3,1 2,0 3,0 4,-1 1,-1 2,-2 3,-4zm31 -15l8 0 -4 15c-1,2 -1,3 -2,5 -1,1 -2,2 -3,3 -2,1 -3,2 -4,2 -2,1 -4,1 -6,1 -1,0 -2,0 -4,0 -1,0 -2,-1 -3,-1 -1,-1 -2,-2 -2,-2 -1,-1 -1,-2 -1,-3 0,-2 0,-3 0,-5l5 -15 7 0 -4 16c0,1 0,2 0,3 1,1 2,1 3,1 2,0 3,0 4,-1 1,-1 1,-2 2,-3l4 -16zm13 0l8 0 -5 19 12 0 -2 7 -20 0 7 -26zm19 13c1,-4 3,-8 6,-10 3,-2 7,-3 11,-3 4,0 7,1 8,3 2,2 2,6 1,10 -1,3 -2,5 -3,7 -2,2 -4,3 -6,4 -2,1 -5,2 -7,2 -3,0 -6,0 -7,-1 -2,-1 -3,-3 -4,-5 0,-2 0,-4 1,-7zm8 0c-1,2 -1,4 -1,5 1,2 2,2 4,2 2,0 3,0 4,-2 2,-1 3,-3 3,-5 1,-3 1,-5 0,-6 0,-1 -1,-1 -3,-1 -2,0 -3,0 -4,1 -2,1 -3,3 -3,6zm20 4l7 0c0,1 0,2 1,2 0,1 1,2 3,2 1,0 2,0 3,-1 0,0 1,-1 1,-2 0,0 0,-1 0,-1 -1,-1 -2,-1 -4,-2 -3,-1 -5,-2 -7,-3 -1,-1 -1,-3 0,-5 0,-1 1,-2 2,-4 1,-1 2,-2 4,-2 2,-1 4,-1 7,-1 3,0 5,0 6,1 2,2 2,4 2,6l-8 1c1,-1 0,-2 0,-3 -1,0 -1,-1 -3,-1 0,0 -1,1 -2,1 0,0 -1,1 -1,1 0,1 0,1 0,1 1,1 1,1 3,1 3,1 5,2 6,3 2,0 3,1 3,3 0,1 0,2 0,3 -1,2 -1,3 -3,5 -1,1 -3,2 -4,3 -2,1 -4,1 -7,1 -4,0 -7,-1 -8,-3 -1,-1 -2,-3 -1,-6z"/>
  </g>
 </g>
</svg>
